<svg width="97" height="50" viewBox="0 0 97 50" fill="none" xmlns="http://www.w3.org/2000/svg">
<path fill-rule="evenodd" clip-rule="evenodd" d="M61.2708 27.5454C61.4169 26.8885 61.6118 26.2413 61.8555 25.6137C62.0893 24.9665 62.4012 24.3585 62.7715 23.78C63.1321 23.2112 63.5706 22.7013 64.0579 22.2404C64.5451 21.7795 65.1201 21.4069 65.734 21.1421C65.9971 21.0931 66.2797 21.0538 66.5915 21.0147C66.8937 20.9852 67.186 20.9264 67.4784 20.8577C67.7513 20.7891 68.0046 20.691 68.2385 20.544C68.4627 20.4067 68.6283 20.2007 68.716 19.9654C68.7647 19.8281 68.7842 19.681 68.7842 19.5437C68.7939 19.4065 68.755 19.2692 68.6868 19.1515C68.5991 19.0142 68.5211 18.8671 68.4626 18.72C68.3944 18.5239 68.258 18.3768 68.0728 18.2885C67.8389 18.1611 67.5856 18.0728 67.3322 18.014C67.0203 17.9454 66.7085 17.8963 66.3869 17.8669C66.0459 17.8375 65.734 17.8276 65.4319 17.8276C65.1493 17.8276 64.9057 17.8375 64.6913 17.8571C64.5256 17.8669 64.3599 17.8963 64.1943 17.9355C63.3172 18.1316 62.4791 18.5631 61.6508 19.2299C60.8225 19.8967 60.0916 20.6813 59.4777 21.5539C58.8638 22.4071 58.357 23.3387 57.9769 24.3193C57.6066 25.2803 57.4214 26.1432 57.4214 26.9179C57.402 27.0454 57.402 27.1729 57.402 27.2905V27.6436C56.9634 28.2417 56.5346 28.8007 56.1156 29.3302C55.5016 30.1245 54.8293 30.8893 54.1276 31.615C53.5429 32.2034 53.1141 32.4976 52.8413 32.4976C52.7925 32.5074 52.7438 32.4877 52.7048 32.4485C52.5294 32.2916 52.393 31.8994 52.315 31.2718C52.2273 30.5265 52.1883 29.7812 52.1883 29.0262C52.1883 28.3495 52.1981 27.6436 52.2176 26.9179C52.237 26.1922 52.2663 25.496 52.2955 24.8292C52.3058 24.5942 52.3149 24.3689 52.3237 24.1525L52.3237 24.1512L52.3237 24.151L52.3238 24.1506L52.3238 24.1501C52.3398 23.7535 52.3546 23.3867 52.3735 23.0445L52.3854 22.8266C52.4085 22.4033 52.4264 22.0739 52.4514 21.8384C53.1531 20.4165 53.8352 19.073 54.4882 17.8179C55.1509 16.5627 55.7453 15.3075 56.2813 14.0524C56.8367 12.7579 57.3142 11.4341 57.7236 10.0809C58.1718 8.5609 58.5129 7.01158 58.737 5.44261C58.815 4.85424 58.854 4.26588 58.854 3.67752C58.8442 2.38311 58.6006 1.44173 58.1231 0.853362C57.6651 0.284614 57.0121 -0.00956868 56.1741 0.000237366H55.8427C55.716 0.000237366 55.5894 0.0198495 55.4627 0.0492677C54.5759 0.206165 53.6891 0.843557 52.7925 1.96145C51.896 3.07934 51.0676 4.48161 50.3173 6.17806C49.5084 8.0118 48.8555 9.90436 48.3586 11.846C47.8226 13.8758 47.4327 15.9449 47.1988 18.0336C46.9552 20.1223 46.8383 22.2306 46.848 24.3389C46.8675 26.2511 47.0234 27.9083 47.3256 29.3105C47.6276 30.7128 48.1246 31.7327 48.8165 32.3798C49.3428 32.88 49.9275 33.3114 50.5609 33.6645C51.1066 33.9685 51.7206 34.1155 52.3442 34.1155C53.4162 34.1058 54.5466 33.5958 55.7551 32.5858C56.4372 32.0073 57.1876 31.2326 57.9867 30.2519C58.0549 30.3794 58.1231 30.4971 58.1913 30.6148C58.4642 31.0365 58.7955 31.4189 59.1756 31.7523C59.6238 32.1445 60.1111 32.4976 60.6178 32.8113C61.0369 33.0859 61.4852 33.3017 61.9627 33.4389C62.4402 33.586 62.9274 33.6645 63.4244 33.6645C63.8532 33.6645 64.282 33.586 64.6815 33.4193C65.3637 33.1251 65.9679 32.6838 66.4649 32.1347C66.9814 31.566 67.4101 30.9187 67.7513 30.2323C68.0923 29.5361 68.3457 28.8007 68.5114 28.0456C68.6673 27.3493 68.755 26.6335 68.755 25.9176C68.755 25.7803 68.7452 25.5941 68.7258 25.3784C68.7063 25.1528 68.677 24.9272 68.638 24.7116C68.5991 24.5056 68.5406 24.2997 68.4626 24.1134C68.4139 23.9663 68.3067 23.8486 68.1703 23.7897C68.1508 23.7603 68.141 23.7309 68.141 23.6917V23.6914C68.141 23.6523 68.141 23.623 68.1118 23.5936C68.0826 23.4857 68.0339 23.3779 67.9657 23.2896C67.8979 23.2118 67.8206 23.134 67.7433 23.0561L67.7415 23.0543C67.6928 22.917 67.6245 22.7895 67.5369 22.6817C67.4199 22.5052 67.3225 22.4267 67.2347 22.4267L67.0594 22.1031C67.0106 22.0835 66.9619 22.0737 66.9131 22.0835C66.8157 22.0835 66.767 22.1227 66.767 22.2012C66.7475 22.2306 66.7378 22.26 66.7475 22.2992C66.7475 22.3286 66.7475 22.3679 66.7572 22.3973C66.767 22.4267 66.767 22.4659 66.767 22.4953C66.8742 22.7699 66.9424 23.0543 66.9716 23.3484C67.0009 23.6427 67.0203 23.927 67.0301 24.2212C66.9229 25.1626 66.7378 26.104 66.4941 27.0159C66.2505 27.9181 65.9094 28.8007 65.4904 29.6342C65.3442 29.9284 65.1688 30.2225 64.9739 30.4873C64.7692 30.7619 64.5354 30.9972 64.2625 31.2032C64.0676 31.36 63.8629 31.4875 63.6291 31.5856C63.366 31.6934 63.0834 31.7424 62.8007 31.7327C62.5084 31.7424 62.216 31.6444 61.9919 31.4385C61.7775 31.2326 61.6118 30.9776 61.5046 30.703C61.378 30.3892 61.3 30.0558 61.261 29.7126C61.2221 29.3694 61.1928 29.0262 61.1928 28.6732V28.6731C61.1928 28.4573 61.1928 28.2417 61.2123 28.0456C61.2217 27.9505 61.2335 27.8601 61.2442 27.7777C61.2555 27.6899 61.2658 27.6112 61.2708 27.5454ZM53.2116 13.8954C53.5234 12.454 53.9132 10.9732 54.3615 9.44348C54.8098 7.91374 55.2873 6.46243 55.794 5.1092C56.3007 3.74615 56.7782 2.70671 57.2168 2.00067C57.2168 1.97126 57.2265 2.03009 57.2363 2.18699C57.2461 2.34389 57.2558 2.48117 57.2655 2.59884C57.0804 3.92266 56.827 5.23667 56.4957 6.54088C56.1741 7.77645 55.8232 8.99237 55.4335 10.1789C55.0437 11.3655 54.6246 12.5422 54.1666 13.7091C53.7183 14.8662 53.2311 16.0528 52.7048 17.2589C52.7243 16.4548 52.8997 15.3369 53.2116 13.8954ZM36.713 27.5454C36.8592 26.8884 37.054 26.2412 37.2977 25.6136C37.5315 24.9665 37.8434 24.3585 38.2137 23.7799C38.5743 23.2111 39.0128 22.7013 39.5001 22.2404C39.9874 21.7794 40.5623 21.4069 41.1762 21.1421C41.4393 21.093 41.7219 21.0538 42.0338 21.0146C42.3359 20.9852 42.6282 20.9263 42.9206 20.8577C43.1935 20.789 43.4468 20.691 43.6807 20.5439C43.9048 20.4066 44.0705 20.2007 44.1582 19.9654C44.207 19.8281 44.2264 19.6809 44.2264 19.5437C44.2362 19.4064 44.1972 19.2691 44.129 19.1514C44.0413 19.0141 43.9633 18.8671 43.9048 18.72C43.8367 18.5238 43.7002 18.3768 43.5151 18.2885C43.2812 18.161 43.0278 18.0728 42.7744 18.0139C42.4626 17.9453 42.1507 17.8963 41.8291 17.8669C41.4881 17.8374 41.1762 17.8276 40.8741 17.8276C40.5915 17.8276 40.3479 17.8374 40.1335 17.857C39.9678 17.8669 39.8022 17.8963 39.6365 17.9355C38.7594 18.1316 37.9214 18.5631 37.0931 19.2299C36.2647 19.8967 35.5339 20.6812 34.9199 21.5539C34.306 22.4071 33.7992 23.3387 33.4191 24.3192C33.0488 25.2802 32.8637 26.1431 32.8637 26.9178C32.8442 27.0453 32.8442 27.1728 32.8442 27.2905V27.6631V27.7415C32.0158 28.477 31.1291 29.1438 30.1838 29.7322C29.3262 30.2715 27.5818 30.6834 26.851 30.6834H26.6073C25.8082 30.6147 25.2528 30.3107 24.9702 29.7616C24.6681 29.1732 24.5219 28.5162 24.5316 27.8494C24.5316 27.4375 24.5609 27.0355 24.6291 26.6335C24.6973 26.2216 24.7753 25.8097 24.8727 25.4175C25.2235 23.9956 25.7595 22.7797 26.4904 21.7893C27.2213 20.7989 27.9424 20.2988 28.6831 20.2988C28.722 20.2889 28.7707 20.2988 28.8 20.3183C28.8195 20.338 28.8584 20.338 28.9169 20.338C29.1606 20.3772 29.3944 20.3968 29.6381 20.387C30.213 20.387 30.6711 20.2595 31.0121 20.0143C31.3532 19.7692 31.5189 19.4751 31.5189 19.1514C31.5091 18.9063 31.4214 18.671 31.2558 18.4846C31.0803 18.2689 30.7685 18.1022 30.3105 17.9649C29.9304 17.8374 29.5309 17.7394 29.1313 17.6903C28.7415 17.6413 28.342 17.6119 27.9521 17.6119C26.6951 17.6021 25.4574 17.8767 24.3075 18.4062C23.177 18.9259 22.1636 19.6418 21.2963 20.5341C20.4387 21.4069 19.7371 22.4365 19.2206 23.5544C18.7138 24.6428 18.4507 25.8196 18.4507 27.0159C18.4507 28.0749 18.6066 28.9771 18.9087 29.742C19.1718 30.4382 19.5812 31.0756 20.0879 31.6248C20.5654 32.115 21.1403 32.5171 21.7738 32.7819C22.4072 33.0564 23.0796 33.2526 23.7617 33.3506C24.2685 33.4487 24.785 33.4977 25.3015 33.4977C26.4904 33.5075 27.6793 33.2624 28.7707 32.7917C29.9012 32.3013 30.9634 31.6345 31.9086 30.8402C32.3472 30.4774 32.7662 30.0852 33.156 29.6733C33.273 30.0067 33.4289 30.3205 33.6141 30.6147C33.8869 31.0364 34.2182 31.4188 34.5983 31.7522C35.0466 32.1445 35.5339 32.4975 36.0406 32.8113C36.4596 33.0859 36.9079 33.3016 37.3854 33.4388C37.8629 33.586 38.3502 33.6644 38.8472 33.6644C39.276 33.6644 39.7047 33.586 40.1042 33.4193C40.7865 33.1251 41.3906 32.6838 41.8876 32.1346C42.4041 31.5659 42.8329 30.9187 43.174 30.2323C43.5151 29.536 43.7684 28.8006 43.9341 28.0455C44.09 27.3493 44.1777 26.6335 44.1777 25.9176C44.1777 25.7803 44.168 25.594 44.1485 25.3783C44.129 25.1527 44.0998 24.9272 44.0607 24.7115C44.0218 24.5056 43.9633 24.2996 43.8854 24.1133C43.8367 23.9662 43.7295 23.8485 43.593 23.7897C43.5735 23.7603 43.5638 23.7309 43.5638 23.6916C43.5638 23.6524 43.5638 23.623 43.5345 23.5936C43.5053 23.4857 43.4566 23.3778 43.3884 23.2896C43.3201 23.2111 43.2422 23.1327 43.1642 23.0542C43.1155 22.9169 43.0473 22.7895 42.9596 22.6816C42.8426 22.5051 42.7452 22.4267 42.6575 22.4267L42.4821 22.1031C42.4333 22.0834 42.3846 22.0737 42.3359 22.0834C42.2385 22.0834 42.1897 22.1227 42.1897 22.2011C42.1702 22.2306 42.1605 22.26 42.1702 22.2992C42.1702 22.3286 42.1702 22.3678 42.18 22.3973C42.1897 22.4267 42.1897 22.4659 42.1897 22.4953V22.4953C42.2969 22.7699 42.3651 23.0542 42.3944 23.3484C42.4236 23.6426 42.4431 23.927 42.4529 24.2212C42.3457 25.1626 42.1605 26.104 41.9169 27.0159C41.6732 27.9181 41.3321 28.8006 40.9131 29.6341C40.7669 29.9283 40.5915 30.2225 40.3966 30.4872C40.192 30.7618 39.9581 30.9972 39.6852 31.2031C39.4903 31.36 39.2857 31.4875 39.0518 31.5855C38.7887 31.6934 38.5061 31.7424 38.2234 31.7326C37.9311 31.7424 37.6387 31.6443 37.4147 31.4384C37.2003 31.2325 37.0346 30.9775 36.9274 30.7029C36.8007 30.3892 36.7227 30.0558 36.6837 29.7126C36.6448 29.3694 36.6156 29.0262 36.6156 28.6731V28.6708C36.6156 28.4559 36.6156 28.2409 36.635 28.0455C36.6453 27.9426 36.6635 27.8451 36.68 27.7572C36.6949 27.6776 36.7084 27.606 36.713 27.5454ZM96.1283 25.7217C96.3331 25.712 96.5282 25.8296 96.7131 26.0845C96.8986 26.3395 96.9955 26.6435 96.9955 26.9671C97.0154 27.1731 96.9666 27.379 96.869 27.5555C96.7227 28.1046 96.4794 28.6341 96.1578 29.1048C95.6603 29.8599 95.0659 30.5365 94.3939 31.1249C93.77 31.6544 93.1172 31.9486 92.4445 31.978C92.2692 31.9878 92.094 31.978 91.9188 31.9584C91.7236 31.929 91.5285 31.8702 91.3436 31.7917C91.1581 31.7035 90.9149 31.5857 90.6221 31.4387C90.2813 31.2523 89.9893 31.0072 89.7453 30.7032C89.4141 30.2815 89.1605 29.8207 88.9757 29.3205C88.7517 28.7518 88.615 27.9869 88.5662 27.0456C88.5373 26.2316 88.5662 25.408 88.6637 24.594C88.6637 24.5352 88.6734 24.4666 88.683 24.4077C88.4782 24.7901 88.2934 25.0746 88.2934 25.0746L84.5511 28.8891L84.5711 29.5755C84.4153 33.4484 83.1904 36.7523 82.0932 39.7118L82.0924 39.7141C81.9509 40.0958 81.8115 40.4719 81.6768 40.8427C80.5945 43.8041 76.5994 48.7071 74.1531 49.2955C69.5052 50.4134 70.2748 46.0301 70.6548 44.0003C71.0444 41.9409 72.4476 38.7932 73.9683 36.5476C76.9971 32.514 80.3187 29.0539 81.3211 28.0098C81.4152 27.9117 81.489 27.8349 81.54 27.781V25.3099C81.54 25.0097 81.5303 24.8934 81.514 24.6992C81.5074 24.6206 81.4997 24.5292 81.4912 24.4077C81.3979 24.4492 81.3502 24.5615 81.2725 24.7444C81.0743 25.2107 80.6812 26.1358 78.8409 27.5162C71.8731 32.7428 70.6548 27.1632 70.6548 26.6533C70.6548 25.6923 70.986 24.6921 71.6388 23.6429C72.3308 22.5446 73.198 21.5738 74.2019 20.7501C75.2739 19.8577 76.473 19.1222 77.749 18.5535C78.9866 17.9848 80.3217 17.6905 81.6768 17.6808C81.9784 17.6808 82.2711 17.7004 82.5728 17.7298C82.8559 17.7494 83.1383 17.8181 83.4015 17.9063C83.6448 17.9848 83.8688 18.1318 84.0447 18.3279C84.2295 18.5437 84.3464 18.8183 84.3567 19.1125C84.3567 19.2693 84.3464 19.4165 84.3175 19.5635C84.2879 19.7106 84.2687 19.8675 84.2687 20.0146C84.2687 20.1813 84.4439 24.6627 84.4831 25.555C85.6911 24.5744 87.1822 23.4468 88.303 22.8094C88.4981 22.6819 88.7221 22.5838 88.9558 22.5348L89.1021 21.7993C89.2677 20.9658 89.5021 20.1519 89.7845 19.3478C90.0477 18.6124 90.3301 18.1318 90.6324 17.8867C90.7589 17.7788 90.9245 17.72 91.0901 17.72C91.1973 17.72 91.3141 17.72 91.4213 17.7298C91.5484 17.7494 91.6652 17.7494 91.7917 17.7396C92.2596 17.7102 92.6788 17.8867 93.0491 18.2593C93.4195 18.6319 93.6236 19.0438 93.6435 19.5047C93.6532 19.7204 93.6236 19.9362 93.5556 20.1421C93.5164 20.6716 93.4388 21.2011 93.3412 21.7208C93.2051 22.4759 93.0684 23.3095 92.9323 24.2312C92.7956 25.153 92.6788 26.0551 92.5812 26.9377C92.4932 27.6535 92.4548 28.3694 92.474 29.095C92.4932 29.5167 92.562 29.7912 92.6692 29.9187C92.7179 29.9775 92.7956 30.0168 92.8732 30.007C93.078 29.9972 93.3707 29.7814 93.7212 29.35C94.0723 28.9185 94.7932 27.9575 95.2219 27.0553C95.3908 26.702 95.5847 26.3536 95.6981 26.15C95.742 26.0711 95.7738 26.0139 95.7875 25.9865C95.885 25.81 96.0019 25.7315 96.1283 25.7217ZM74.0755 26.6239C74.553 27.0652 76.7458 26.3689 78.5578 24.4666C80.6048 22.3092 81.384 19.8577 80.8577 19.8283L80.8295 19.8387C80.8077 19.8467 80.7839 19.8552 80.758 19.8645L80.7576 19.8646C80.2857 20.0333 79.1044 20.4556 76.8042 22.4073C75.089 23.8586 73.5684 26.1532 74.0755 26.6239ZM78.441 39.9797C79.1137 38.6755 79.7177 37.3321 80.2241 35.9593C80.7216 34.6256 81.004 33.498 81.0817 32.5761C80.4873 33.4195 79.7857 34.3903 78.9673 35.4984C78.1489 36.6064 77.3594 37.7636 76.5994 38.9795C75.8586 40.1563 75.2058 41.382 74.6403 42.6568C74.0947 43.8924 73.8027 45.0691 73.7731 46.1772C74.5235 45.6672 75.3034 44.8435 76.1411 43.706C76.9986 42.5294 77.7689 41.284 78.441 39.9797ZM91.1884 15.0231C91.3932 15.3565 91.6364 15.6605 91.9195 15.935C92.1923 16.2096 92.4844 16.3469 92.7867 16.3273C93.2835 16.3076 93.7219 16.0429 94.1122 15.5427C94.5018 15.0623 94.6867 14.4445 94.6482 13.8267L94.6283 13.4737C94.5898 12.6206 94.4434 12.0321 94.2091 11.6988C94.005 11.385 93.6443 11.2085 93.2739 11.2379C93.0203 11.2673 92.7771 11.3359 92.5331 11.4242C92.1923 11.5517 91.8804 11.7184 91.5883 11.9341C91.286 12.1499 91.0132 12.4146 90.7988 12.7186C90.5844 12.9932 90.4772 13.3364 90.4964 13.6796C90.6916 14.1503 90.9252 14.5916 91.1884 15.0231ZM19.7957 3.48137C20.088 3.67749 19.5033 5.34453 18.4314 5.34453C17.3594 5.34453 10.1481 5.73677 10.1481 5.73677L8.49143 16.9157C8.49143 16.9157 16.2875 17.0137 16.7747 17.308C17.262 17.6021 16.3849 19.3672 15.7028 19.4653C15.438 19.5033 14.2339 19.4675 12.8594 19.4267C10.6923 19.3623 8.10161 19.2853 8.10161 19.4653C8.10161 19.4653 6.7373 29.6636 6.7373 30.2519C6.7373 30.8403 9.17357 30.8501 9.75827 30.8403C10.5755 30.8231 11.3095 30.809 11.9695 30.7963C15.0872 30.7362 16.5552 30.7079 17.3594 30.5461C18.217 30.3696 18.4314 31.3306 18.139 31.6248C17.8467 31.919 16.4823 32.4092 10.9277 33.6841C8.61808 34.2136 2.15711 34.8608 1.1826 33.4879C0.208095 32.1151 0.89025 26.0745 1.37751 22.8974C1.96221 19.073 3.71632 5.05034 3.71632 5.05034C3.71632 5.05034 1.5724 3.48137 4.69083 2.89301C7.80923 2.30465 19.5033 3.28525 19.7957 3.48137Z" fill="#F9F7EF"/>
</svg>
