<svg width="91" height="31" viewBox="0 0 91 31" fill="none" xmlns="http://www.w3.org/2000/svg">
<path fill-rule="evenodd" clip-rule="evenodd" d="M6.5108 6.97394C6.5108 3.31 10.553 0.748047 13.9212 0.748047C17.2878 0.748047 19.6459 3.52946 19.6459 6.16302C19.6459 7.70081 18.4676 8.98179 17.0528 8.98179C15.638 8.98179 14.4597 7.73661 14.4597 6.16302C14.4597 4.58942 15.778 3.67577 16.245 3.49211C16.9516 3.23685 15.9446 1.11382 13.9212 1.11382C12.9188 1.11382 11.5631 2.02902 11.56 3.86099V14.7102L12.2433 14.9507C13.5414 15.4052 15.3095 15.8457 17.4808 15.2387C17.5758 15.2116 17.6759 15.2074 17.7728 15.2267C17.8696 15.2459 17.9606 15.2879 18.038 15.3492C18.1579 15.4426 18.4365 15.6605 18.3991 16.8465L18.3867 17.273L17.968 17.3617C17.1029 17.547 16.2207 17.6414 15.336 17.6434C14.1752 17.6452 13.0209 17.4721 11.9117 17.1298L11.56 17.0227V26.089C11.56 28.2852 12.2371 29.0167 13.5834 29.0167V29.7483H4.48738V29.0167C5.8384 29.0167 6.5108 28.2852 6.5108 26.089V15.434L5.99714 15.3868C3.44504 15.1563 1.87141 17.1219 1.75898 17.2623L1.75263 17.2701L1.4429 17.6872L1.0102 17.4024C0.387607 16.9884 0.0560781 16.6086 0.00627097 16.2708C-0.0310844 16.0016 0.0981029 15.8319 0.403172 15.5035C0.952606 14.912 2.99003 12.9929 6.0843 13.2124L6.5108 13.2426V6.97394ZM30.2952 29.8885V29.157C28.9504 29.157 28.2749 28.4239 28.278 26.2292V4.31098H27.604C27.604 4.31098 25.9199 4.63939 23.2257 4.63939H21.2023V5.37249C22.5517 5.37249 23.2257 6.10403 23.2257 8.29866V26.2292C23.2257 28.4239 22.5486 29.157 21.2023 29.157V29.8885H30.2952ZM31.9793 22.8999C31.9793 18.727 34.5724 14.9229 39.1189 14.9229C43.6653 14.9229 45.888 18.9838 45.888 22.4236H36.9974C37.3678 26.6261 39.22 28.3506 41.7789 28.3506C44.607 28.3506 45.6514 26.4113 46.123 25.2782L46.4607 25.5334C45.7868 27.4728 43.8661 30.2168 39.7586 30.2168C35.5825 30.2168 31.9793 27.1444 31.9793 22.8999ZM41.2466 21.9473C41.2466 18.8344 40.8761 15.2887 39.1251 15.2887C37.374 15.2887 36.8013 18.8375 36.9694 21.9473H41.2466ZM65.2505 29.8885V29.1569C63.9042 29.1569 62.5236 28.6433 61.5134 26.7413L58.1452 20.6711L60.2355 18.0344C61.5414 16.3503 63.0917 15.9845 64.438 15.9845V15.253H59.8636V15.9845C61.2099 15.9845 61.0076 16.3503 59.6939 18.0344L57.9102 20.2664L56.8658 18.3986C55.8556 16.495 55.8214 15.983 57.1693 15.983V15.2514H47.4725V15.983C48.8173 15.983 50.1979 16.495 51.208 18.3986L54.5762 24.4704L52.4874 27.1055C51.1738 28.7881 49.6251 29.1554 48.2772 29.1554V29.8869H52.8579V29.1554C51.5115 29.1554 51.7123 28.7881 53.026 27.1055L54.8112 24.8735L55.8556 26.7413C56.8658 28.6433 56.9 29.1569 55.5521 29.1569V29.8885H65.2505ZM83.1329 25.5334C83.1329 28.4612 81.3149 30.2169 79.6308 30.2169C78.0821 30.2169 76.5334 29.4495 75.6571 27.6923C75.1186 28.718 74.0399 30.2169 71.9527 30.2169C69.4623 30.2169 66.9346 29.0464 66.9346 25.9724C66.9346 22.3925 72.1877 21.3621 74.9162 20.9605V18.7643C74.9162 16.8966 74.3777 15.2887 72.829 15.2887C71.2803 15.2887 70.404 16.3129 70.6733 16.5681C71.7846 17.4834 72.0866 18.5807 71.5153 19.7885C71.3931 20.0537 71.2171 20.2907 70.9986 20.4843C70.78 20.678 70.5236 20.8242 70.2456 20.9136C69.9676 21.003 69.674 21.0336 69.3835 21.0037C69.093 20.9737 68.8119 20.8838 68.558 20.7395C67.5136 20.1916 66.8459 18.6912 67.6148 17.4833C68.6592 15.6156 70.9488 14.8856 72.8352 14.923C77.0782 14.923 79.9748 17.5939 79.9748 20.8858V24.033C79.9748 26.5576 80.3779 27.9117 81.388 27.9117C82.3982 27.9117 82.8029 26.6307 82.8029 25.5334H83.1329ZM75.489 27.2907C75.1186 26.4113 74.9162 25.3513 74.9162 24.033V21.5084C73.3675 21.9847 71.9869 23.0462 71.9869 25.7109C71.9869 28.4176 73.131 28.7117 73.8049 28.7117C74.5115 28.718 75.0221 28.058 75.489 27.2907ZM90.0171 27.924C90.0171 29.2658 88.9293 30.3536 87.5874 30.3536C86.2456 30.3536 85.1578 29.2658 85.1578 27.924C85.1578 26.5821 86.2456 25.4943 87.5874 25.4943C88.9293 25.4943 90.0171 26.5821 90.0171 27.924Z" fill="#F9F7EF"/>
</svg>
