<svg width="309" height="326" viewBox="0 0 309 326" fill="#1B1B20" xmlns="http://www.w3.org/2000/svg">
<path fill-rule="evenodd" clip-rule="evenodd" d="M35.1779 78.9306V72.1439V66.253H84.3057V41.9566H35.1779V36.8529V34.1383V25.458H93.8987V0.143555H5.90335V34.1383V36.8529V72.1439V78.9306V101.273H35.1779V78.9306ZM132.622 75.6999V64.7951H150.483C160.517 64.7951 166.165 68.5986 168.831 75.6999H168.865V75.7336C169.48 79.6723 169.852 83.5791 170.188 87.1156C170.876 94.345 171.416 100.027 173.592 101.273H202.908V99.7551C200.224 98.7961 199.913 94.083 199.412 86.5043L199.412 86.5035C199.206 83.3709 198.966 79.7488 198.514 75.6999H198.534C196.827 63.8644 191.493 57.3364 181.213 53.8161V53.3103C191.173 49.79 196.734 45.5279 199.314 37.5634C200.014 35.8303 200.314 34.441 200.314 33.9083C200.314 11.4513 183.886 1.45691 160.177 1.45691H103.092V101.273H132.635V75.6999H132.622ZM132.622 37.9343V25.0941H163.278C167.645 25.148 171.258 28.2839 171.972 32.3977C172.012 32.6337 172.045 32.8765 172.072 33.1192L172.073 33.138V33.1383V33.1385V33.1387V33.1389V33.139V33.1392V33.1393C172.093 33.3885 172.112 33.6319 172.112 33.888C172.112 34.1848 172.098 34.4815 172.065 34.7782C172.038 35.0682 171.992 35.3515 171.932 35.6347C171.118 39.6203 167.558 42.6213 163.278 42.6685H163.238H163.171H163.104H155.744V42.655C155.617 42.6578 155.493 42.6627 155.37 42.6676C155.186 42.6748 155.004 42.682 154.817 42.682H132.615V37.9411L132.622 37.9343ZM164.038 153.528C167.841 153.417 171.941 153.298 177.076 153.895L177.07 153.888C178.247 154.026 179.499 154.144 180.8 154.266C193.254 155.442 210.221 157.044 210.221 179.832C210.221 184.015 209.144 189.277 208.02 192.805H208.014C201.98 209.244 184.18 218.162 162.434 218.162C131.443 218.162 111.061 204.347 110.406 178.355H139.437C140.741 190.201 148.407 195.132 162.273 195.132C171.417 195.132 180.414 191.901 180.996 183.657H181.016C180.467 175.996 171.22 175.482 161.499 174.941C160.332 174.876 159.158 174.811 157.992 174.733C155.262 174.55 152.595 174.53 149.915 174.511H149.914H149.914H149.914H149.914H149.914H149.913H149.913H149.913H149.913H149.913H149.913H149.912C142.999 174.46 135.991 174.409 127.557 171.555L125.189 170.254C117.222 165.005 113.998 159.083 113.998 146.65C113.998 121.489 135.042 110.466 160.32 110.466C185.598 110.466 205.171 121.974 206.315 146.65H178.1C176.956 137.604 170.106 132.504 159.343 132.504C149.229 132.504 142.54 136.95 142.54 143.527C142.54 147.885 145.055 150.489 150.025 152.559C155.158 153.786 159.375 153.663 164.038 153.528ZM208.346 114.406V139.89H243.237V154.936V215.535H272.935V154.936V139.89H308.161V114.406H208.346ZM116.226 226.042H146.568V300.341H201.594V325.858H116.226V226.042ZM56.5758 266.908L32.7967 226.042H0.649902L32.9087 278.434L41.4017 294.535V325.858H56.5758H71.7498V294.535L80.2428 278.434L112.502 226.042H80.3548L56.5758 266.908ZM308.161 1.45691H208.161V25.4569H308.161V1.45691ZM5.90335 114.406H105.903V138.406H5.90335V114.406ZM308.161 38.8877H208.161V62.8877H308.161V38.8877ZM5.90335 151.837H105.903V175.837H5.90335V151.837ZM308.161 76.3186H208.161V100.319H308.161V76.3186ZM208.161 226.042H308.161V250.042H208.161V226.042ZM308.161 263.473H208.161V287.473H308.161V263.473ZM208.161 300.904H308.161V324.904H208.161V300.904ZM105.903 189.268H5.90335V213.268H105.903V189.268Z"/>
</svg>
